<svg width="324" height="64" viewBox="0 0 324 64" fill="none" xmlns="http://www.w3.org/2000/svg">
<path d="M64.4688 51H71.8128L61.2558 30.957L71.3028 12.75H64.6218L55.0338 31.263V12.75H48.9138V51H55.0338V32.487L64.4688 51Z" fill="#F6F6F6"/>
<path d="M86.0067 51.51C93.1467 51.51 97.4817 47.124 97.4817 38.25V25.5C97.4817 16.626 93.1467 12.24 86.0067 12.24C78.8667 12.24 74.5317 16.626 74.5317 25.5V38.25C74.5317 47.124 78.8667 51.51 86.0067 51.51ZM86.0067 45.9C82.6407 45.9 80.6517 44.013 80.6517 38.25V25.5C80.6517 19.737 82.6917 17.85 86.0067 17.85C89.3727 17.85 91.3617 19.737 91.3617 25.5V38.25C91.3617 44.013 89.3217 45.9 86.0067 45.9Z" fill="#F6F6F6"/>
<path d="M103.928 21.879C103.928 26.928 106.529 29.937 109.895 32.334L114.23 35.445C116.525 37.077 118.208 38.964 118.208 41.82C118.208 44.37 116.525 45.9 113.873 45.9C111.272 45.9 109.538 44.013 109.538 40.953V38.25H103.418V41.31C103.418 47.889 108.11 51.51 113.873 51.51C119.636 51.51 124.328 48.042 124.328 41.055C124.328 36.159 121.625 33.15 118.31 30.753L113.822 27.54C111.68 26.01 110.048 24.429 110.048 21.879C110.048 19.278 111.578 17.85 113.822 17.85C116.219 17.85 117.698 19.329 117.698 22.593V24.99H123.818V22.44C123.818 15.555 119.381 12.24 113.822 12.24C108.365 12.24 103.928 14.994 103.928 21.879ZM156.221 51H162.341V12.75H151.733L146.021 42.126L140.105 12.75H129.701V51H135.311V17.544L142.094 51H149.489L156.221 17.799V51Z" fill="#F6F6F6"/>
<path d="M182.281 51.51C189.421 51.51 193.756 47.124 193.756 38.25V25.5C193.756 16.626 189.421 12.24 182.281 12.24C175.141 12.24 170.806 16.626 170.806 25.5V38.25C170.806 47.124 175.141 51.51 182.281 51.51ZM182.281 45.9C178.915 45.9 176.926 44.013 176.926 38.25V25.5C176.926 19.737 178.966 17.85 182.281 17.85C185.647 17.85 187.636 19.737 187.636 25.5V38.25C187.636 44.013 185.596 45.9 182.281 45.9Z" fill="#F6F6F6"/>
<path d="M222.889 12.75H216.718L210.394 45.441L204.07 12.75H197.899L205.804 51H214.984L222.889 12.75ZM226.957 51H244.501V45.39H233.077V34.17H243.481V28.56H233.077V18.36H244.501V12.75H226.957V51ZM273.576 51L263.937 33.966C268.833 33.099 272.403 29.937 272.403 24.225V22.695C272.403 16.218 267.915 12.75 261.642 12.75H250.116V51H256.236V32.232L266.283 51H273.576ZM261.132 18.36C264.294 18.36 266.283 19.686 266.283 23.205V23.715C266.283 27.54 264.294 29.07 261.132 29.07H256.236V18.36H261.132ZM277.136 21.879C277.136 26.928 279.737 29.937 283.103 32.334L287.438 35.445C289.733 37.077 291.416 38.964 291.416 41.82C291.416 44.37 289.733 45.9 287.081 45.9C284.48 45.9 282.746 44.013 282.746 40.953V38.25H276.626V41.31C276.626 47.889 281.318 51.51 287.081 51.51C292.844 51.51 297.536 48.042 297.536 41.055C297.536 36.159 294.833 33.15 291.518 30.753L287.03 27.54C284.888 26.01 283.256 24.429 283.256 21.879C283.256 19.278 284.786 17.85 287.03 17.85C289.427 17.85 290.906 19.329 290.906 22.593V24.99H297.026V22.44C297.026 15.555 292.589 12.24 287.03 12.24C281.573 12.24 277.136 14.994 277.136 21.879ZM302.909 51H320.453V45.39H309.029V34.17H319.433V28.56H309.029V18.36H320.453V12.75H302.909V51Z" fill="#F6F6F6"/>
<path d="M40.6055 43.265C41.1141 43.7736 41.5163 44.3784 41.7886 45.0441C42.0609 45.7098 42.1979 46.4231 42.1916 47.1423C42.1852 47.8615 42.0357 48.5722 41.7517 49.233C41.4677 49.8938 41.055 50.4915 40.5376 50.991C39.4875 51.9783 38.091 52.5126 36.65 52.4784C35.2091 52.4442 33.8395 51.8441 32.8376 50.808C32.1946 50.1263 31.7397 49.2894 31.5173 48.3791C31.2948 47.4688 31.3125 46.5164 31.5686 45.615C31.7062 45.0742 31.6977 44.5066 31.544 43.9702C31.3902 43.4338 31.0967 42.9478 30.6936 42.562L25.0756 36.946C24.805 36.6724 24.4617 36.4821 24.0864 36.3975C23.711 36.313 23.3193 36.3378 22.9576 36.469C21.8601 36.8679 20.6642 36.9079 19.5426 36.583C19.0776 36.4341 18.581 36.4141 18.1055 36.525C17.6301 36.6359 17.1936 36.8737 16.8426 37.213C15.2136 38.85 12.4306 41.655 10.9536 43.131C10.7083 43.4066 10.5388 43.7411 10.4616 44.1019C10.3845 44.4627 10.4024 44.8373 10.5136 45.189C10.9322 46.3772 10.9386 47.6718 10.5316 48.864C10.2977 49.581 9.90786 50.2372 9.38997 50.7853C8.87209 51.3335 8.23908 51.7599 7.53655 52.034C6.24489 52.5764 4.79357 52.5985 3.48601 52.0956C2.17846 51.5928 1.11589 50.604 0.520466 49.3359C-0.0749618 48.0678 -0.157155 46.6187 0.29107 45.2914C0.739294 43.9641 1.68324 42.8615 2.92555 42.214C3.34044 42.0093 3.69072 41.6939 3.93776 41.3027C4.1848 40.9115 4.31899 40.4597 4.32555 39.997V38.169C4.32737 37.7769 4.2172 37.3925 4.00799 37.0608C3.79877 36.7292 3.49922 36.4642 3.14455 36.297C2.20855 35.862 1.41633 35.1686 0.861204 34.2985C0.306073 33.4283 0.0111414 32.4177 0.0111414 31.3855C0.0111414 30.3534 0.306073 29.3427 0.861204 28.4726C1.41633 27.6024 2.20855 26.909 3.14455 26.474C3.49911 26.3068 3.79852 26.0418 4.00757 25.7101C4.21661 25.3785 4.32658 24.994 4.32455 24.602V23.381C4.33197 22.787 4.18409 22.2013 3.89557 21.6819C3.60704 21.1626 3.18787 20.7276 2.67955 20.42C1.72753 19.8624 0.968453 19.0273 0.50383 18.0266C0.0392058 17.0259 -0.108819 15.9072 0.0795499 14.82C0.321856 13.7737 0.845163 12.8134 1.59305 12.0426C2.34094 11.2718 3.28503 10.7198 4.32355 10.446C5.62496 10.1778 6.97956 10.3971 8.12988 11.0622C9.2802 11.7273 10.1461 12.7919 10.5629 14.0536C10.9797 15.3153 10.9184 16.6862 10.3907 17.9056C9.86299 19.1251 8.90562 20.1082 7.70055 20.668C7.34581 20.8351 7.04618 21.1001 6.83696 21.4317C6.62773 21.7634 6.51761 22.1479 6.51955 22.54V24.6C6.51776 24.992 6.62783 25.3763 6.83685 25.7079C7.04586 26.0395 7.34514 26.3046 7.69955 26.472C8.61017 26.8945 9.38549 27.5617 9.939 28.3991C10.4925 29.2366 10.8024 30.2114 10.8342 31.2147C10.8659 32.2181 10.6182 33.2105 10.1187 34.0813C9.61926 34.952 8.88765 35.6669 8.00555 36.146C7.56661 36.3695 7.19649 36.7078 6.93463 37.125C6.67277 37.5422 6.52897 38.0226 6.51855 38.515V40.543C6.51874 40.8579 6.61183 41.1657 6.78616 41.4279C6.96048 41.6901 7.20829 41.895 7.49855 42.017C7.80324 42.145 8.13911 42.1793 8.4634 42.1157C8.78768 42.0522 9.08571 41.8935 9.31955 41.66L15.0556 35.92C15.4507 35.5377 15.7363 35.0565 15.8826 34.5265C16.0289 33.9965 16.0306 33.4369 15.8876 32.906C15.6125 31.9696 15.5957 30.9762 15.8391 30.031C16.0824 29.0858 16.5768 28.224 17.2698 27.5368C17.9629 26.8496 18.8288 26.3625 19.776 26.1272C20.7233 25.8919 21.7165 25.9171 22.6506 26.2C23.1203 26.3569 23.6241 26.3825 24.1073 26.2739C24.5906 26.1654 25.035 25.9268 25.3925 25.584L30.9056 20.076C31.2607 19.705 31.5098 19.2456 31.627 18.7455C31.7441 18.2455 31.725 17.7232 31.5716 17.233C31.3196 16.3451 31.2987 15.4074 31.5108 14.5091C31.7229 13.6108 32.161 12.7815 32.7836 12.1C33.2779 11.5741 33.8712 11.1508 34.5293 10.8544C35.1874 10.5579 35.8975 10.3942 36.619 10.3724C37.3405 10.3507 38.0592 10.4714 38.734 10.7277C39.4088 10.984 40.0264 11.3708 40.5516 11.866C41.3887 12.6784 41.9411 13.7394 42.1269 14.891C42.3126 16.0426 42.1215 17.2234 41.5822 18.2578C41.0429 19.2921 40.1841 20.1248 39.1336 20.6318C38.083 21.1389 36.8969 21.2933 35.7515 21.072C35.0794 20.9234 34.381 20.9429 33.7182 21.1286C33.0553 21.3144 32.4486 21.6608 31.9515 22.137L26.8696 27.22C26.5427 27.5594 26.3142 27.9813 26.2085 28.4404C26.1029 28.8996 26.1239 29.3789 26.2696 29.827C26.6083 30.9559 26.5711 32.1642 26.1636 33.27C26.0311 33.6338 26.0057 34.0278 26.0905 34.4055C26.1752 34.7832 26.3664 35.1287 26.6416 35.401C28.1325 36.892 30.8656 39.615 32.4836 41.23C32.8403 41.5712 33.2824 41.8099 33.7634 41.921C34.2443 42.032 34.7464 42.0113 35.2165 41.861C36.1585 41.5943 37.1545 41.5838 38.1019 41.8306C39.0492 42.0774 39.9135 42.5726 40.6055 43.265Z" fill="#F6F6F6"/>
<path d="M23.8019 15.754C23.8017 16.2901 23.6425 16.8141 23.3446 17.2598C23.0466 17.7054 22.6232 18.0528 22.1279 18.2578C21.6325 18.4629 21.0875 18.5165 20.5617 18.4119C20.036 18.3072 19.553 18.049 19.1739 17.67C18.7948 17.2909 18.5367 16.8079 18.432 16.2821C18.3274 15.7563 18.381 15.2113 18.5861 14.716C18.7911 14.2207 19.1384 13.7973 19.5841 13.4993C20.0298 13.2013 20.5538 13.0422 21.0899 13.042C21.4461 13.0419 21.7988 13.1119 22.1279 13.2482C22.457 13.3844 22.756 13.5842 23.0079 13.836C23.2597 14.0879 23.4595 14.3869 23.5957 14.716C23.732 15.0451 23.802 15.3978 23.8019 15.754Z" fill="#F6F6F6"/>
<path d="M23.8116 47.087C23.8115 47.6231 23.6523 48.1471 23.3543 48.5928C23.0564 49.0384 22.633 49.3858 22.1376 49.5908C21.6423 49.7959 21.0973 49.8495 20.5715 49.7449C20.0457 49.6402 19.5628 49.382 19.1837 49.003C18.8046 48.6239 18.5464 48.1409 18.4418 47.6151C18.3372 47.0893 18.3908 46.5443 18.5958 46.049C18.8009 45.5537 19.1482 45.1303 19.5939 44.8323C20.0395 44.5343 20.5635 44.3752 21.0996 44.375C21.4558 44.3749 21.8085 44.4449 22.1376 44.5812C22.4667 44.7174 22.7658 44.9172 23.0176 45.169C23.2695 45.4209 23.4692 45.7199 23.6055 46.049C23.7417 46.3781 23.8118 46.7308 23.8116 47.087Z" fill="#F6F6F6"/>
<path d="M39.4747 31.4239C39.4745 31.96 39.3154 32.484 39.0174 32.9297C38.7195 33.3754 38.2961 33.7227 37.8007 33.9277C37.3054 34.1328 36.7604 34.1864 36.2346 34.0818C35.7088 33.9771 35.2258 33.719 34.8468 33.3399C34.4677 32.9608 34.2095 32.4778 34.1049 31.952C34.0002 31.4263 34.0538 30.8813 34.2589 30.3859C34.464 29.8906 34.8113 29.4672 35.257 29.1692C35.7026 28.8713 36.2266 28.7121 36.7627 28.7119C37.1189 28.7118 37.4716 28.7818 37.8007 28.9181C38.1298 29.0543 38.4288 29.2541 38.6807 29.5059C38.9326 29.7578 39.1323 30.0568 39.2686 30.3859C39.4048 30.715 39.4749 31.0677 39.4747 31.4239Z" fill="#F6F6F6"/>
</svg>
