<svg width="21" height="20" viewBox="0 0 21 20" fill="none" xmlns="http://www.w3.org/2000/svg">
<path d="M13.8496 7.33754C14.1438 5.89716 14.0083 4.40206 13.4598 3.03808C14.8492 3.59643 16.0398 4.5578 16.8783 5.79846C17.7168 7.03912 18.1648 8.50231 18.1648 9.99974C18.1629 11.7411 17.5554 13.4276 16.4463 14.77C15.3372 16.1125 13.7957 17.0274 12.086 17.3578C10.3762 17.6882 8.60483 17.4137 7.07539 16.5811C5.54595 15.7486 4.35373 14.41 3.70313 12.7947C5.0671 13.3432 6.56221 13.4788 8.00259 13.1845C9.44297 12.8902 10.7651 12.1791 11.8046 11.1396C12.8442 10.1001 13.5553 8.77792 13.8496 7.33754Z" stroke="#EDF2F7" stroke-width="2" stroke-linecap="round" stroke-linejoin="round"/>
</svg>
