<svg width="21" height="20" viewBox="0 0 21 20" fill="none" xmlns="http://www.w3.org/2000/svg">
<path d="M2.65625 10L3.48958 10M16.8229 10L17.6562 10M10.1563 2.5L10.1563 3.33333M10.1562 16.6667L10.1562 17.5M15.4596 4.69667L14.8704 5.28583M5.44208 14.7142L4.85292 15.3033M4.85292 4.69667L5.44208 5.28583M14.8704 14.7142L15.4596 15.3033M10.1563 6.66667C11.0403 6.66667 11.8882 7.01786 12.5133 7.64298C13.1384 8.2681 13.4896 9.11595 13.4896 10C13.4896 10.8841 13.1384 11.7319 12.5133 12.357C11.8882 12.9821 11.0403 13.3333 10.1563 13.3333C9.2722 13.3333 8.42435 12.9821 7.79923 12.357C7.17411 11.7319 6.82292 10.8841 6.82292 10C6.82292 9.11595 7.17411 8.2681 7.79923 7.64298C8.42435 7.01786 9.2722 6.66667 10.1563 6.66667Z" stroke="#718096" stroke-width="2" stroke-linecap="round" stroke-linejoin="round"/>
</svg>
